<?xml version="1.0" standalone="no"?><!DOCTYPE svg PUBLIC "-//W3C//DTD SVG 1.1//EN" "http://www.w3.org/Graphics/SVG/1.1/DTD/svg11.dtd"><svg t="1765423677078" class="icon" viewBox="0 0 1024 1024" version="1.1" xmlns="http://www.w3.org/2000/svg" p-id="6341" xmlns:xlink="http://www.w3.org/1999/xlink" width="32" height="32"><path d="M133.9392 996.7616a47.104 47.104 0 0 1-47.3088-46.8992V434.7904a46.8992 46.8992 0 0 1 47.3088-46.8992h249.856V74.1376a49.3568 49.3568 0 0 1 51.4048-46.8992h153.6a49.3568 49.3568 0 0 1 51.4048 46.8992v313.7536h249.856a46.8992 46.8992 0 0 1 47.3088 46.8992v515.072a47.104 47.104 0 0 1-47.3088 46.8992z m739.1232-63.0784V698.368H149.7088v235.3152h119.1936v-96.256A36.4544 36.4544 0 0 1 302.4896 798.72a36.4544 36.4544 0 0 1 33.5872 38.7072v96.256h143.36V798.72a33.5872 33.5872 0 0 1 67.1744 0v135.9872h143.36v-96.256a33.9968 33.9968 0 1 1 67.1744 0v96.256z m0-298.3936V450.56H580.8128l-6.144-6.144V90.3168h-128v354.5088l-6.144 6.144H149.7088v184.32z" fill="#000000" p-id="6342"></path></svg>