<svg width="1024" height="1024" xmlns="http://www.w3.org/2000/svg" p-id="8259" version="1.1" class="icon" t="1765423723684">

 <g>
  <title>Layer 1</title>
  <path stroke="null" id="svg_1" p-id="8260" d="m675.09032,91.14926l-79.4029,-24.22981l-24.69323,-4.69589l-31.47756,30.92886l-28.82725,-28.32474l60.30481,-59.2536l-1.12242,-1.57403l93.13922,22.0271l30.30532,26.38092l328.47567,322.74982l0,639.41002l-1017.72004,0l0,-362.53266l2.45664,-7.51187l25.48378,-110.17403l3.37405,-2.50396l71.63999,-70.39119l28.82725,28.32474l-54.14793,53.20404l-30.30532,77.11297l-6.55441,31.93929l0,322.50944l936.17196,0l0,-582.84066l-305.92762,-300.55476zm-366.23243,228.64117l-115.30899,113.33903l-28.82725,-28.36481l115.30899,-113.29897l28.82725,28.32474zm173.00425,-169.98852l-115.34976,113.33903l-28.82725,-28.32474l115.34976,-113.33903l28.82725,28.32474z"/>
 </g>
</svg>