<?xml version="1.0" standalone="no"?><!DOCTYPE svg PUBLIC "-//W3C//DTD SVG 1.1//EN" "http://www.w3.org/Graphics/SVG/1.1/DTD/svg11.dtd"><svg t="1765424100752" class="icon" viewBox="0 0 1024 1024" version="1.1" xmlns="http://www.w3.org/2000/svg" p-id="12264" xmlns:xlink="http://www.w3.org/1999/xlink" width="32" height="32"><path d="M512 550.459085a42.971045 42.971045 0 0 0-42.971045 42.971045v108.287033a42.971045 42.971045 0 0 0 85.94209 0v-108.287033a42.971045 42.971045 0 0 0-42.971045-42.971045z" fill="#000000" p-id="12265"></path><path d="M877.253882 381.582879h-27.501469V314.977759A315.40747 315.40747 0 0 0 534.774654 0h-45.549308a315.40747 315.40747 0 0 0-314.977759 314.977759v66.60512H146.746118a107.857323 107.857323 0 0 0-107.427612 107.427612v427.561897a107.427612 107.427612 0 0 0 107.427612 107.427612h730.507764a107.427612 107.427612 0 0 0 107.427612-107.427612v-427.561897a107.857323 107.857323 0 0 0-107.427612-107.427612zM260.189677 314.977759A229.035669 229.035669 0 0 1 489.225346 85.94209h45.549308a229.035669 229.035669 0 0 1 229.035669 229.035669v66.60512H260.189677z m638.549727 601.594629a21.485522 21.485522 0 0 1-21.485522 21.485522h-730.507764a21.485522 21.485522 0 0 1-21.485522-21.485522v-427.561897a21.485522 21.485522 0 0 1 21.485522-21.485522h730.507764a21.485522 21.485522 0 0 1 21.485522 21.485522z" fill="#000000" p-id="12266"></path></svg>