<?xml version="1.0" standalone="no"?><!DOCTYPE svg PUBLIC "-//W3C//DTD SVG 1.1//EN" "http://www.w3.org/Graphics/SVG/1.1/DTD/svg11.dtd"><svg t="1765424059062" class="icon" viewBox="0 0 1024 1024" version="1.1" xmlns="http://www.w3.org/2000/svg" p-id="11194" xmlns:xlink="http://www.w3.org/1999/xlink" width="32" height="32"><path d="M877.714286 402.285714H320v-64C320 232.228571 405.942857 146.285714 512 146.285714c49.371429 0 96.914286 18.285714 131.657143 53.028572L693.028571 146.285714c-49.371429-47.542857-113.371429-73.142857-182.857142-73.142857-146.285714 0-265.142857 118.857143-265.142858 265.142857V402.285714H144.457143c-20.114286 0-36.571429 16.457143-36.571429 36.571429v475.428571c0 20.114286 16.457143 36.571429 36.571429 36.571429h731.428571c20.114286 0 36.571429-16.457143 36.571429-36.571429V438.857143c1.828571-20.114286-14.628571-36.571429-34.742857-36.571429z m-36.571429 475.428572H182.857143V475.428571h658.285714v402.285715z" p-id="11195" fill="#000000"></path><path d="M548.571429 557.714286h-73.142858v237.714285h73.142858v-237.714285z" p-id="11196" fill="#000000"></path></svg>